<svg xmlns="http://www.w3.org/2000/svg" version="1.1" xmlns:xlink="http://www.w3.org/1999/xlink" width="1500" height="264" viewBox="0 0 1500 264"><svg xml:space="preserve" width="1500" height="264" data-version="2" data-id="lg_J674fdTAbocJNLkmne" viewBox="0 0 235 264" x="0" y="0"><rect width="100%" height="100%" fill="transparent"></rect><path fill="#fff" d="M50.34 235.284v22.89q-7.49 3.02-16.21 3.02-5.98 0-11.59-1.82-5.6-1.83-10.05-5.35-4.45-3.51-7.07-8.65-2.62-5.13-2.62-11.74 0-6.99 2.48-12.78 2.48-5.78 7.05-9.98t10.83-6.49q6.26-2.28 13.85-2.28 1.41 0 3.57.14t4.48.51q2.32.37 4.19 1.07v18.14q-2.32-.88-4.75-.88-3.62 0-6.68 1.78-3.06 1.77-4.89 4.76-1.82 2.99-1.82 6.64 0 3.63 1.4 5.67 1.41 2.03 4.15 2.03 1.09 0 2.6-.35t4.13-1.76q2.62-1.4 6.95-4.57m4.85-19.16h20.56l6.51 12.87q1.44-3.23 2.97-6.45 1.53-3.22 3-6.42H105l-21.55 43.63q-.31.67-1.09 1.02-.77.35-1.68.35-.85 0-1.66-.35-.81-.35-1.16-1.02zm68.87 43.98-15.65-43.98h19.69l4.75 14.56q2.6-3.55 5.43-7.3 2.83-3.74 5.36-7.26h2.25l10.06 14.24q1.09-3.44 2.33-7.12 1.25-3.67 2.34-7.12h16l-14.84 43.98h-5.83l-12.59-18.21-13.47 18.21zm82.58 1.02q-4.71 0-9.18-1.63-4.46-1.64-8.03-4.71-3.57-3.08-5.66-7.38-2.09-4.31-2.09-9.62 0-5.24 1.97-9.53 1.97-4.29 5.41-7.36 3.45-3.08 7.97-4.75 4.51-1.67 9.61-1.67 7.17 0 12.97 2.83 5.8 2.83 9.2 8.09 3.39 5.25 3.39 12.53 0 5.34-2.08 9.63-2.07 4.29-5.66 7.32-3.58 3.02-8.17 4.64-4.59 1.61-9.65 1.61m-2.21-14.2q1.54 0 3.44-1.46t3.66-3.72q1.76-2.27 2.9-4.77 1.14-2.49 1.14-4.57 0-1.58-.83-2.88-.82-1.3-2.83-1.3-1.82 0-3.86 1.39t-3.82 3.62q-1.77 2.23-2.88 4.74-1.11 2.52-1.11 4.8 0 1.55.92 2.85.91 1.3 3.27 1.3"></path><path fill="#eade8e" d="M40.072 131.15a17.67 17.67 0 1 0 17.67 19.677h40.76a17.67 17.67 0 1 0 35.34 0h39.956a17.67 17.67 0 1 0 10.642-18.271l-19.476-33.332a17.67 17.67 0 0 0-17.47-30.52l-20.279-34.937a17.67 17.67 0 1 0-22.087 0L85.05 68.704a17.67 17.67 0 0 0-17.469 30.52l-19.677 33.733a18.071 18.071 0 0 0-7.83-1.807m0 31.524a13.654 13.654 0 1 1 0-27.307 13.654 13.654 0 0 1 0 27.307m76.099 0a13.654 13.654 0 1 1 0-27.307 13.654 13.654 0 0 1 0 27.307m-20.08-78.71h40.36v1.004a17.67 17.67 0 0 0 7.83 14.658l-19.276 33.733a17.67 17.67 0 0 0-17.468 0L88.06 99.827a17.67 17.67 0 0 0 7.83-14.658c.202-.401.202-.803.202-1.205m109.029 64.856a13.654 13.654 0 1 1-27.308 0 13.654 13.654 0 0 1 27.308 0m-24.296-14.257a17.67 17.67 0 0 0-7.028 12.249H133.84a17.67 17.67 0 0 0-5.622-11.044l19.677-34.134a17.469 17.469 0 0 0 13.654-.602Zm-12.85-49.394a13.654 13.654 0 1 1-27.308 0 13.654 13.654 0 0 1 27.307 0m-65.457-65.257a13.654 13.654 0 1 1 27.307 0 13.654 13.654 0 0 1-27.307 0m6.024 16.064a17.469 17.469 0 0 0 15.26 0l20.079 34.736a18.071 18.071 0 0 0-6.827 9.437H95.289a18.071 18.071 0 0 0-6.826-9.437ZM64.569 85.169a13.654 13.654 0 1 1 27.307 0 13.654 13.654 0 0 1-27.307 0m6.224 16.063a17.469 17.469 0 0 0 13.654.603l19.677 34.134a17.67 17.67 0 0 0-5.622 11.043h-40.76a17.67 17.67 0 0 0-6.426-11.645Z"></path></svg></svg>